<svg id="Layer_2" data-name="Layer 2" xmlns="http://www.w3.org/2000/svg" width="43.128" height="49.883" viewBox="0 0 43.128 49.883">
    <defs>
        <style>
            .cls-1{fill:#fff}
        </style>
    </defs>
    <g id="Layer_1" data-name="Layer 1">
        <path id="Path_15" data-name="Path 15" class="cls-1" d="M50.817 15.076a1.125 1.125 0 0 0-1.157-.157l-18.548 8.027a7.31 7.31 0 0 1-2.854.522 10.359 10.359 0 0 1-3.985-.792 4.865 4.865 0 0 1-.93-.5c.082-.038.176-.082.283-.119l16.9-7.3 2.514 1.075v-3.145a1.5 1.5 0 0 0-.541-1.175 1.125 1.125 0 0 0-1.157-.157l-18.565 8.027a4.4 4.4 0 0 0-1.477.924 2.571 2.571 0 0 0-.761 1.8.34.34 0 0 0 0 .05v28.371a2.8 2.8 0 0 0 1.025 2.055 10.764 10.764 0 0 0 6.688 2.118 9.6 9.6 0 0 0 3.771-.7l18.555-8.046a1.4 1.4 0 0 0 .8-1.32V16.251a1.5 1.5 0 0 0-.561-1.175z" transform="translate(-8.256 -4.819)"/>
        <path id="Path_16" data-name="Path 16" class="cls-1" d="M31.8 5.895a1.5 1.5 0 0 0-.522-1.069 1.15 1.15 0 0 0-1.163-.163L11.566 12.7a7.291 7.291 0 0 1-2.854.522 10.478 10.478 0 0 1-3.985-.792 4.865 4.865 0 0 1-.905-.5l.278-.13 16.875-7.3 2.514 1.08V2.437a1.5 1.5 0 0 0-.541-1.175 1.138 1.138 0 0 0-1.162-.162L3.237 9.132a4.287 4.287 0 0 0-1.483.924A2.565 2.565 0 0 0 1 11.853a.339.339 0 0 0 0 .05V40.3a2.8 2.8 0 0 0 1.018 2.055c1.5 1.326 4.01 2.018 6.694 2.106a11.9 11.9 0 0 0 2.162-.226V18.353a4.922 4.922 0 0 1 1.439-3.564 6.77 6.77 0 0 1 2.287-1.452z" transform="translate(-.999 -1.012)"/>
    </g>
</svg>
