<svg data-name="Layer 2" xmlns="http://www.w3.org/2000/svg" width="22.669" height="22.669" viewBox="0 0 22.669 22.669">
    <g data-name="Layer 1">
        <path data-name="Path 1" d="M11.325 8.46a2.865 2.865 0 1 0 2.865 2.865 2.865 2.865 0 0 0-2.865-2.865zm0 0a2.865 2.865 0 1 0 2.865 2.865 2.865 2.865 0 0 0-2.865-2.865zm0 0a2.865 2.865 0 1 0 2.865 2.865 2.865 2.865 0 0 0-2.865-2.865zm0 0a2.865 2.865 0 1 0 2.865 2.865 2.865 2.865 0 0 0-2.865-2.865zm0 0a2.865 2.865 0 1 0 2.865 2.865 2.865 2.865 0 0 0-2.865-2.865zm0 0a2.865 2.865 0 1 0 2.865 2.865 2.865 2.865 0 0 0-2.865-2.865zm0 0a2.865 2.865 0 1 0 2.865 2.865 2.865 2.865 0 0 0-2.865-2.865zm0 0a2.865 2.865 0 1 0 2.865 2.865 2.865 2.865 0 0 0-2.865-2.865zm0 0a2.865 2.865 0 1 0 2.865 2.865 2.865 2.865 0 0 0-2.865-2.865zm0 0a2.865 2.865 0 1 0 2.865 2.865 2.865 2.865 0 0 0-2.865-2.865zm0 0a2.865 2.865 0 1 0 2.865 2.865 2.865 2.865 0 0 0-2.865-2.865zm0 0a2.865 2.865 0 1 0 2.865 2.865 2.865 2.865 0 0 0-2.865-2.865zm0-8.46a11.335 11.335 0 1 0 11.334 11.325A11.335 11.335 0 0 0 11.325 0zm0 16.675a5.351 5.351 0 1 1 5.351-5.351 5.351 5.351 0 0 1-5.351 5.351zm6.968-9.853-.195.146a1.754 1.754 0 0 1-2.3-.146 1.647 1.647 0 0 1-.2-.214 1.686 1.686 0 0 1-.166-.322 1.16 1.16 0 0 1-.1-.312 1.8 1.8 0 0 1 0-.39 1.745 1.745 0 0 1 .505-1.184 1.335 1.335 0 0 1 .263-.214 1.569 1.569 0 0 1 .614-.283 1.725 1.725 0 0 1 1.569.468 1.764 1.764 0 0 1 .01 2.451zM11.325 8.46a2.865 2.865 0 1 0 2.865 2.865 2.865 2.865 0 0 0-2.865-2.865zm0 0a2.865 2.865 0 1 0 2.865 2.865 2.865 2.865 0 0 0-2.865-2.865zm0 0a2.865 2.865 0 1 0 2.865 2.865 2.865 2.865 0 0 0-2.865-2.865zm0 0a2.865 2.865 0 1 0 2.865 2.865 2.865 2.865 0 0 0-2.865-2.865zm0 0a2.865 2.865 0 1 0 2.865 2.865 2.865 2.865 0 0 0-2.865-2.865zm0 0a2.865 2.865 0 1 0 2.865 2.865 2.865 2.865 0 0 0-2.865-2.865zm0 0a2.865 2.865 0 1 0 2.865 2.865 2.865 2.865 0 0 0-2.865-2.865zm0 0a2.865 2.865 0 1 0 2.865 2.865 2.865 2.865 0 0 0-2.865-2.865zm0 0a2.865 2.865 0 1 0 2.865 2.865 2.865 2.865 0 0 0-2.865-2.865zm0 0a2.865 2.865 0 1 0 2.865 2.865 2.865 2.865 0 0 0-2.865-2.865zm0 0a2.865 2.865 0 1 0 2.865 2.865 2.865 2.865 0 0 0-2.865-2.865z" transform="translate(.01)" style="fill:#4d4d4d"/>
    </g>
</svg>
